HIERARCHY
ROOT pelvis
{
	OFFSET 0.000000 0.000000 0.000000
	CHANNELS 6 Xposition Yposition Zposition Zrotation Xrotation Yrotation
	JOINT lfemur
	{
		OFFSET 11.446000 0.000000 0.000000
		CHANNELS 3 Zrotation Xrotation Yrotation
		JOINT ltibia
		{
			OFFSET 0.000000 -42.030400 0.000000
			CHANNELS 3 Zrotation Xrotation Yrotation
			JOINT lfoot
			{
				OFFSET 0.000000 -39.930200 0.000000
				CHANNELS 3 Zrotation Xrotation Yrotation
				JOINT ltoes
				{
					OFFSET 0.000000 0.000000 11.775800
					CHANNELS 3 Zrotation Xrotation Yrotation
					End Site
					{
					    OFFSET 0.000000 0.000000 5.000000
					}
				}
			}
		}
	}
	JOINT rfemur
	{
		OFFSET -11.446000 0.000000 0.000000
		CHANNELS 3 Zrotation Xrotation Yrotation
		JOINT rtibia
		{
			OFFSET 0.000000 -42.030400 0.000000
			CHANNELS 3 Zrotation Xrotation Yrotation
			JOINT rfoot
			{
				OFFSET 0.000000 -39.930200 0.000000
				CHANNELS 3 Zrotation Xrotation Yrotation
				JOINT rtoes
				{
					OFFSET 0.000000 0.000000 11.775800
					CHANNELS 3 Zrotation Xrotation Yrotation
					End Site
					{
					    OFFSET 0.000000 0.000000 5.000000
					}
				}
			}
		}
	}
	JOINT thorax
	{
		OFFSET 0.000000 11.255600 -5.000000
		CHANNELS 3 Zrotation Xrotation Yrotation
		JOINT head
		{
			OFFSET 0.000000 43.799300 0.000000
			CHANNELS 3 Zrotation Xrotation Yrotation
			End Site
			{
			    OFFSET 0.000000 5.000000 0.000000
			}
		}
		JOINT lclavicle
		{
			OFFSET 0.000000 39.863000 0.000000
			CHANNELS 3 Zrotation Xrotation Yrotation
			JOINT lhumerus
			{
				OFFSET 17.380600 4.958300 0.000000
				CHANNELS 3 Zrotation Xrotation Yrotation
				JOINT lradius
				{
					OFFSET 0.000000 -27.561300 0.000000
					CHANNELS 3 Zrotation Xrotation Yrotation
					JOINT lhand
					{
						OFFSET 0.000000 -26.933000 0.000000
						CHANNELS 3 Zrotation Xrotation Yrotation
						End Site
						{
						    OFFSET 0.000000 -5.000000 0.000000
						}
					}
				}
			}
		}
		JOINT rclavicle
		{
			OFFSET 0.000000 39.863000 0.000000
			CHANNELS 3 Zrotation Xrotation Yrotation
			JOINT rhumerus
			{
				OFFSET -17.380600 4.958300 0.000000
				CHANNELS 3 Zrotation Xrotation Yrotation
				JOINT rradius
				{
					OFFSET 0.000000 -27.561300 0.000000
					CHANNELS 3 Zrotation Xrotation Yrotation
					JOINT rhand
					{
						OFFSET 0.000000 -26.933000 0.000000
						CHANNELS 3 Zrotation Xrotation Yrotation
						End Site
						{
						    OFFSET 0.000000 -5.000000 0.000000
						}
					}
				}
			}
		}
	}
}
MOTION
Frames: 16
Frame Time:	0.0333333
57.844600 80.538700 2.709600 4.934648 -4.652155 -94.506650 -11.321072 -33.810275 -6.233963 0.000000 49.601548 0.000000 -0.000000 -4.401928 6.028682 -0.000000 -1.375053 -0.000000 -9.199540 -21.917704 -1.688526 -0.000000 50.054229 -0.000000 0.000000 -16.425407 -2.083816 -0.000000 -29.559361 -0.000000 -9.619113 10.816253 -2.343229 14.720273 17.238469 3.013248 -9.545754 -0.000000 5.616892 29.684500 -10.635839 -29.945007 -180.000037 -54.422476 161.758655 33.168758 1.340620 -0.000000 22.630911 0.000000 0.833443 -42.925311 1.412751 36.116099 180.000033 -54.656588 -164.260627 -7.468658 -0.964161 -0.000000 
57.682900 80.505100 3.085300 5.388287 -4.757267 -94.454825 -11.941193 -34.163616 -6.829051 0.000000 49.629405 -0.000000 -0.000000 -4.466771 6.459050 -0.000000 -1.365090 -0.000000 -9.566093 -22.233324 -1.729090 0.000000 49.988679 -0.000000 -0.000000 -16.475063 -2.080948 -0.000000 -29.559965 -0.000000 -8.754938 10.993355 0.351848 15.528124 16.415587 0.400059 -9.662897 0.000000 2.102141 28.400164 -9.612191 -29.661748 -180.000036 -56.359978 159.370372 32.312843 1.491529 0.000000 21.852182 0.000000 -1.312155 -42.763339 0.882591 34.134170 -180.000034 -55.868748 -164.584554 -7.167848 -1.063112 -0.000000 
57.367700 80.886600 3.332500 5.416148 -4.651711 -94.404101 -11.901784 -33.373763 -6.736192 -0.000000 48.464372 0.000000 0.000000 -4.056976 6.299763 -0.000000 -1.357299 0.000000 -9.389127 -21.260479 -1.090419 -0.000000 48.377953 0.000000 0.000000 -15.900417 -2.427098 -0.000000 -29.560515 0.000000 -8.473789 10.819864 0.119206 15.555126 16.612222 0.487967 -9.884617 0.000000 2.226100 28.189728 -8.109742 -29.573173 180.000036 -59.332514 158.113249 30.359228 -0.332083 -0.000000 21.901547 -0.000000 -1.129785 -41.765662 1.661519 33.575212 -180.000034 -59.747963 -167.340269 -4.979018 -1.800301 -0.000000 
56.978100 81.698700 3.511800 5.533724 -4.245017 -94.018881 -11.697240 -31.858817 -7.266590 -0.000000 45.951886 -0.000000 0.000000 -3.059726 6.250289 0.000000 -1.352234 -0.000000 -8.981037 -19.505938 -0.915352 -0.000000 45.204155 0.000000 0.000000 -14.309538 -2.778276 0.000000 -29.560956 -0.000000 -7.882885 10.425916 -0.189984 16.090906 16.947119 0.074612 -10.194729 -0.000000 2.321542 27.910236 -6.736230 -29.490603 180.000035 -65.072702 156.312058 27.113169 -1.774061 -0.000000 22.017755 0.000000 -1.006268 -40.526787 2.564161 32.889477 180.000037 -66.800895 -166.768058 -5.233131 -1.708558 -0.000000 
56.549200 82.765600 3.635900 5.497873 -3.906088 -93.820460 -11.327792 -29.696536 -7.636396 0.000000 42.482467 0.000000 0.000000 -1.552846 6.214780 -0.000000 -1.350223 -0.000000 -8.359565 -17.388030 -0.104609 -0.000000 41.532128 -0.000000 0.000000 -11.770465 -3.556480 0.000000 -29.559788 0.000000 -7.557499 9.813767 -0.248876 16.998013 17.622723 -0.653853 -9.998984 0.000000 2.409251 26.953798 -5.676207 -29.466719 -180.000037 -73.788216 155.428531 23.938536 -2.884448 0.000000 22.420691 0.000000 -0.998352 -39.371453 3.060392 32.016669 180.000037 -76.400747 -165.931098 -4.655561 -1.898871 -0.000000 
56.088900 83.923800 3.764400 5.551724 -3.322435 -93.524963 -10.791650 -27.353914 -8.384239 0.000000 38.540747 -0.000000 0.000000 0.223064 6.380152 0.000000 -1.345941 -0.000000 -7.646719 -15.234752 0.351924 -0.000000 37.541945 -0.000000 -0.000000 -8.477963 -3.859390 0.000000 -29.561697 -0.000000 -6.854176 9.074466 -0.219128 17.890873 18.163132 -1.280371 -9.933919 0.000000 2.625648 25.670567 -5.770829 -29.549369 180.000024 -85.481646 154.644282 19.812511 -3.341744 -0.000000 22.647156 0.000000 -1.017661 -37.696888 3.064281 30.406518 -179.999997 -88.476456 -164.527647 -3.585557 -2.256412 0.000000 
55.504400 85.047700 3.899500 5.308345 -2.585312 -93.084380 -10.181710 -24.334297 -9.554093 -0.000000 34.027118 -0.000000 -0.000000 1.796754 6.894648 0.000000 -1.340568 -0.000000 -6.962962 -13.041836 0.133779 -0.000000 34.268951 -0.000000 0.000000 -4.933662 -4.043291 0.000000 -29.559733 -0.000000 -5.949337 8.489036 -0.373108 18.743840 18.495536 -2.283330 -10.068125 -0.000000 2.740899 24.335776 -6.765483 -29.338680 -0.000006 -80.154432 -27.347228 15.775607 -4.020487 0.000000 22.827417 0.000000 -0.495883 -35.706092 2.769535 27.868660 -0.000004 -77.281908 16.727441 -1.433834 -2.979482 0.000000 
55.100300 85.983500 3.977800 5.347439 -2.313876 -93.415845 -9.533384 -21.781864 -9.619786 -0.000000 29.503046 -0.000000 0.000000 3.512955 7.307228 -0.000000 -1.324590 0.000000 -6.520572 -12.384723 0.494393 0.000000 32.877099 -0.000000 0.000000 -2.083241 -4.189505 -0.000000 -29.551687 -0.000000 -5.583750 7.541933 0.081215 19.297498 18.838599 -2.567300 -10.322115 -0.000000 2.169532 22.765492 -8.206745 -28.215178 0.000002 -63.613985 -30.002079 12.487998 -4.370850 0.000000 23.202509 0.000000 0.485373 -33.540044 1.863976 23.846543 -0.000005 -61.466289 19.195415 -0.715559 -3.219590 0.000000 
54.674900 86.628500 4.054200 5.274543 -2.119520 -93.714483 -8.922174 -19.428429 -9.224788 -0.000000 25.613616 -0.000000 0.000000 4.649773 7.317548 0.000000 -1.321652 -0.000000 -6.172312 -12.072806 -0.047209 0.000000 32.428946 -0.000000 -0.000000 -0.918704 -4.250553 -0.000000 -29.547760 -0.000000 -5.297840 6.622598 0.331883 19.604075 19.162375 -2.601345 -10.750902 -0.000000 1.327885 21.196462 -10.025367 -25.466911 0.000001 -45.302299 -32.861963 9.343905 -4.741479 -0.000000 23.890148 -0.000000 1.759990 -31.870062 0.671226 18.087401 -0.000001 -44.522718 24.228720 -1.186430 -3.056723 0.000000 
54.248900 86.984500 4.148000 4.962026 -2.167521 -93.652673 -8.747407 -17.374521 -8.975132 0.000000 22.694707 0.000000 0.000000 5.456618 7.112112 0.000000 -1.314338 0.000000 -6.175959 -11.576493 -1.291305 -0.000000 32.088669 -0.000000 0.000000 -1.568606 -3.367764 -0.000000 -29.549320 -0.000000 -5.309612 6.077596 -0.118788 19.563771 19.382669 -2.218921 -11.005577 0.000000 0.076110 20.009400 -11.264373 -18.262171 0.000000 -27.572219 -40.640073 6.274965 -4.426906 0.000000 24.454463 0.000000 4.035931 -30.158944 0.273806 6.653999 0.000001 -29.303367 32.392914 -1.545611 -2.926784 0.000000 
53.951600 87.105900 4.068100 4.790882 -2.198150 -93.919670 -8.396949 -16.328413 -7.974220 -0.000000 21.284894 -0.000000 -0.000000 5.564922 6.428566 -0.000000 -1.319711 -0.000000 -5.578407 -11.427923 -1.202760 0.000000 31.353160 0.000000 0.000000 -2.643836 -2.804784 -0.000000 -29.550345 0.000000 -5.380654 5.656899 -0.439642 19.157080 19.075671 -1.438810 -10.933637 0.000000 -1.412323 20.621121 -10.791956 -7.403224 0.000002 -15.267598 -49.702701 4.197369 -2.642987 0.000000 24.751353 0.000000 5.959111 -29.712597 0.397488 -7.964370 0.000000 -18.556476 42.578638 -2.113588 -2.720218 -0.000000 
53.616800 87.175300 3.908200 4.495650 -2.305100 -94.176606 -8.270420 -15.365406 -7.675282 0.000000 20.416922 -0.000000 -0.000000 5.527379 6.464949 -0.000000 -1.325713 -0.000000 -4.850699 -11.161634 -0.706409 -0.000000 30.270438 -0.000000 -0.000000 -3.590693 -2.155006 0.000000 -29.548330 0.000000 -5.425620 5.862804 -0.840553 18.010925 18.301899 -0.262577 -11.078483 0.000000 -1.771210 22.856502 -8.884280 2.385173 -0.000000 -9.841237 -57.867597 3.117251 -1.178922 -0.000000 24.817062 0.000000 6.409025 -30.631346 1.430518 -16.348107 0.000000 -14.476506 47.646189 -2.495760 -2.577992 0.000000 
53.407300 87.220100 3.648000 4.376401 -2.562317 -94.723255 -8.234309 -14.801244 -7.521279 0.000000 19.848814 0.000000 -0.000000 5.580791 6.770953 -0.000000 -1.330732 0.000000 -3.906391 -11.278265 0.773022 -0.000000 29.094986 -0.000000 -0.000000 -4.347413 -1.911112 -0.000000 -29.550970 -0.000000 -5.585981 5.999175 -0.953470 16.407290 17.367409 1.053014 -11.994286 -0.000000 -1.330076 26.490217 -3.845458 2.015407 0.000001 -12.974388 -54.767402 3.867883 -0.662302 0.000000 25.038484 0.000000 5.160488 -32.150117 2.932882 -15.106570 0.000000 -15.118500 46.012859 -0.068951 -3.400471 0.000000 
53.190200 87.277300 3.277300 4.101997 -2.726801 -95.260475 -8.062426 -14.078366 -7.327971 0.000000 19.293950 0.000000 -0.000000 5.581788 7.062765 -0.000000 -1.340226 -0.000000 -2.810769 -11.062804 1.900600 0.000000 27.444339 -0.000000 0.000000 -4.243547 -0.540310 -0.000000 -29.555768 -0.000000 -5.675279 6.284944 -0.981715 14.593452 16.842419 2.558726 -13.412098 0.000000 0.043808 30.910298 0.461037 -0.196014 -0.000001 -16.815822 -48.967881 4.625654 -2.363836 0.000000 25.265806 0.000000 3.846895 -33.784136 4.683035 -11.900651 0.000000 -17.199433 41.576971 1.193019 -3.833399 -0.000000 
53.081800 87.284300 2.762600 3.997726 -2.772678 -95.587997 -7.724788 -13.980235 -7.037718 0.000000 19.538551 0.000000 -0.000000 5.452992 7.178138 0.000000 -1.352446 0.000000 -1.533001 -11.100827 2.616479 -0.000000 26.069050 0.000000 -0.000000 -4.084588 0.433699 0.000000 -29.560949 -0.000000 -5.764722 6.169324 -1.057043 13.333716 16.596970 3.177416 -14.647283 -0.000000 1.647286 34.702163 3.094720 0.973233 0.000002 -18.797758 -46.150494 5.076791 -1.843887 -0.000000 25.364469 -0.000000 3.142185 -34.787028 6.452316 -11.366653 -0.000000 -18.793199 36.355151 2.345636 -4.224779 0.000000 
53.100400 87.222900 2.163500 3.740639 -2.764986 -95.494768 -7.444520 -14.184824 -7.239211 0.000000 20.490394 -0.000000 0.000000 5.086471 7.443665 -0.000000 -1.361384 -0.000000 -0.372593 -10.949289 2.621560 -0.000000 24.917602 -0.000000 0.000000 -3.249398 1.179421 -0.000000 -29.557230 -0.000000 -5.889415 6.358750 -1.038110 12.747819 16.279696 3.133832 -15.074496 0.000000 2.632275 37.152897 4.183451 4.861626 0.000000 -18.087616 -47.771284 6.217572 -1.587624 0.000000 24.989405 -0.000000 2.546750 -34.719699 7.437966 -13.172924 0.000000 -19.147179 34.986457 1.213508 -3.843109 0.000000 
